<?xml version="1.0" encoding="UTF-8"?>
<svg id="Layer_2" data-name="Layer 2" xmlns="http://www.w3.org/2000/svg" viewBox="0 0 260.39 63.19">
  <defs>
    <style>
      .cls-1 {
        fill: #f92b37;
      }

      .cls-2 {
        fill: #f72734;
      }

      .cls-3 {
        fill: #f82b38;
      }

      .cls-4 {
        fill: #f52834;
      }

      .cls-5 {
        fill: #f72834;
      }

      .cls-6 {
        fill: #f42834;
      }

      .cls-7 {
        fill: #f52734;
      }

      .cls-8 {
        fill: #f62834;
      }

      .cls-9 {
        fill: #f62835;
      }

      .cls-10 {
        fill: #f92a37;
      }

      .cls-11 {
        fill: #f72a37;
      }

      .cls-12 {
        fill: #f42934;
      }

      .cls-13 {
        fill: #f52934;
      }

      .cls-14 {
        fill: #fb2a37;
      }

      .cls-15 {
        fill: #f32834;
      }

      .cls-16 {
        fill: #f82a37;
      }
    </style>
  </defs>
  <g id="Layer_1-2" data-name="Layer 1">
    <g>
      <polygon class="cls-1" points="68.4 37.26 71.89 18.88 62.13 29.93 55.16 30 50.22 19.23 46.69 37.29 38.67 37.26 45.1 4.3 51.63 4.24 59.7 23.88 75.96 4.29 83.32 4.27 76.94 37.27 68.4 37.26"/>
      <path class="cls-10" d="M253.99,11.26c-1.14.65-1.46,2-2.47,2.88l-13.04,15.81-3.87.02-6.69-18.14-4.67,25.44h-4.86s5.91-32.98,5.91-32.98h5.88s7.73,20.69,7.73,20.69l17.09-20.66,5.38-.05-7.02,33.01-4.79-.04,5.41-25.99Z"/>
      <polygon class="cls-1" points="144.58 37.3 136.27 37.26 141.15 10.59 130.82 10.57 131.97 4.27 163.83 4.27 160.94 10.51 149.58 10.54 144.58 37.3"/>
      <polygon class="cls-16" points="213.69 22.11 198.77 22.09 196.68 33.56 214.52 33.61 213.88 37.27 190.76 37.28 196.69 4.26 219.62 4.26 218.96 8.24 201.34 8.23 199.54 18.18 214.27 18.25 213.69 22.11"/>
      <path class="cls-1" d="M164.94,25.27c.82,5.61,5.76,8.3,11.29,8.19,3.81-.07,7.32-1.32,10.31-3.57l1.46,3.32c-4.01,3.18-8.92,4.55-14,4.22-1.83-.12-3.39-.3-5.13-.91-8.91-3.12-10.85-11.75-7.51-20.23,3.07-7.81,10.72-12.62,19.09-12.34,4.12.14,8.04,1.16,11.06,4.02l-2.83,3.13c-2.44-2.17-5.3-3.02-8.48-3.13-4.25-.15-8.17,1.26-11.14,4.38-3.26,3.41-4.82,8.22-4.12,12.93Z"/>
      <polygon class="cls-14" points="122.6 37.22 114.16 37.3 120.41 4.29 128.95 4.27 122.6 37.22"/>
      <polygon class="cls-11" points="164.43 2.77 133.91 2.78 135.51 0 165.83 0 164.43 2.77"/>
      <path class="cls-8" d="M34.04,59.19h-2.63s.72-5.64.72-5.64c.11-.84-.45-1.66-1.33-1.63-1.47.05-2.78,1.14-3.01,2.58l-.74,4.69-2.7-.04,1.23-8.62,2.49.02c0,.5-.08.82.1,1.33,1.34-1.43,3.32-2.06,5.17-1.35.7.26,1.06.78,1.41,1.37,1.76-1.72,4.41-2.22,6.44-.99.72.44.75,1.63.65,2.39l-.77,5.89-2.7-.05.71-5.59c.12-.93-.63-1.68-1.53-1.63-1.6.1-2.68,1.4-2.9,2.96l-.62,4.3Z"/>
      <path class="cls-9" d="M207.18,59.14l.78-5.59c.1-.74-.41-1.57-1.22-1.62-1.36-.08-2.93.73-3.39,2.07-.58,1.69-.65,3.38-.87,5.15l-2.76.02,1.77-12.59,2.73-.12-.66,5.28c1.53-1.32,3.18-1.63,5.02-1.4,1.53.2,2.4,1.42,2.07,2.98l-.78,5.88-2.67-.07Z"/>
      <path class="cls-7" d="M6.35,57.53c1.59.24,2.98-.11,4.47-.82.2.55.13,1.2-.13,1.89-4.18,1.71-10.03.82-10.62-3.6-.39-2.89,1-5.63,3.57-7.02s5.71-1.47,8.51-.3c-.08.68-.34,1.27-.76,1.89-1.23-.72-2.65-1.09-4.06-.88-2.44.36-4,2.18-4.23,4.56-.2,2.07.96,3.94,3.25,4.28Z"/>
      <path class="cls-4" d="M62.08,51.98c-1.39-.17-3.01.59-3.49,1.91-.63,1.72-.74,3.46-.99,5.28l-2.64.05,1.16-8.69h2.62c-.07.64-.24.97-.16,1.58,1.56-2.05,5.37-2.42,6.85-1.12.51.45.75,1.31.65,2.09l-.83,6.15-2.72-.04.74-5.62c.1-.74-.24-1.46-1.18-1.58Z"/>
      <path class="cls-5" d="M88.98,51.98c-1.65-.24-3.38.74-3.64,2.29l-.81,4.89h-2.69c.4-3.02,1.02-5.65,1.11-8.61h2.64c-.16.47-.31.8-.14,1.29,1.56-1.5,3.85-1.96,5.97-1.35,1.01.29,1.63,1.26,1.48,2.33l-.85,6.4-2.66-.03.74-5.63c.1-.75-.25-1.45-1.16-1.58Z"/>
      <path class="cls-8" d="M164.43,51.97c-1.43-.21-3.04.6-3.51,1.92l-.97,5.28-2.65-.02,1.27-8.62,2.35-.06.04,1.42c1.57-1.47,3.77-2.04,5.9-1.41,1.14.34,1.58,1.44,1.42,2.59l-.84,6.12h-2.58s.72-5.64.72-5.64c.09-.72-.23-1.44-1.15-1.58Z"/>
      <path class="cls-4" d="M237.03,58.73c-2.21,1-4.63.87-6.74-.01-.23-.48-.1-1.29.18-1.82,2.33,1.44,5.45,1.19,5.42.02,0-.26-.25-.6-.58-.72l-3.06-1.16c-.81-.31-1.27-1.1-1.27-1.86-.02-2.87,4.69-3.68,8.02-2.24-.16.71-.22,1.16-.47,1.65-2.18-1.24-4.96-1.07-4.99.13-.03,1.15,3.3,1,4.7,2.59.9,1.02.09,2.84-1.2,3.43Z"/>
      <path class="cls-6" d="M198.13,56.19c.23,3.16-4.73,3.88-8.4,2.55-.17-.7-.16-1.23.12-1.85,2.17,1.39,5.56,1.25,5.59.02,0-.35-.24-.62-.66-.77l-2.94-1.04c-.9-.32-1.45-1.09-1.46-1.93-.03-2.83,4.77-3.71,8.02-2.2l-.36,1.57c-2.13-1.22-5.13-.98-5.07.15.01.25.27.59.59.71l3.13,1.09c.82.29,1.38,1,1.43,1.71Z"/>
      <path class="cls-6" d="M74,58.97c-1.13.54-2.4.38-3.56.3-1.01-.07-1.85-.98-1.7-2l.75-5.32h-1.69s.25-1.36.25-1.36l1.77-.13.29-1.96,2.76-.69-.41,2.7h2.77s-.21,1.47-.21,1.47l-2.78-.03c-.18,1.7-.9,3.47-.6,5.21.15.87,1.82.71,2.43.42.35.26.32,1.22-.07,1.4Z"/>
      <path class="cls-8" d="M155.22,57.55c-.06.58-.11,1.02-.34,1.55-1.11.23-2.18.31-3.29.19-1.17-.12-1.92-1.1-1.76-2.25l.73-5.16-1.6-.07c-.02-.49.01-.94.19-1.13.25-.27,1-.23,1.43-.11.41-.72.32-1.44.53-2.2l2.72-.63-.43,2.8,2.9-.07c.07.59.02.98-.14,1.46l-2.97-.02-.63,4.13c-.08.53-.06,1.29.45,1.57.65.36,1.38.18,2.24-.07Z"/>
      <path class="cls-12" d="M184.33,59.17l-2.67.05,1.11-8.66,2.49-.04c-.05.61-.23.98-.02,1.64.98-1.47,2.59-1.95,4.35-1.97l-.34,2.06c-1.85-.5-3.88.49-4.19,2.41l-.72,4.5Z"/>
      <path class="cls-8" d="M142.66,59.2l-2.71-.03,1.15-8.64h2.51s-.17,1.83-.17,1.83c1-1.51,2.61-2.29,4.33-2.11-.07.79-.08,1.34-.33,1.93-2.03-.33-3.83.69-4.12,2.59l-.66,4.43Z"/>
      <polygon class="cls-15" points="79.02 59.16 76.22 59.16 77.54 50.52 80.18 50.56 79.02 59.16"/>
      <polygon class="cls-4" points="215.18 59.17 212.45 59.16 213.7 50.52 216.39 50.55 215.18 59.17"/>
      <path class="cls-6" d="M215.67,49.12c-.93.11-1.7-.14-1.84-.91-.12-.64.24-1.31.97-1.64.54-.24,1.14-.28,1.67-.02.44.22.69.77.59,1.38-.09.54-.51,1.09-1.38,1.19Z"/>
      <path class="cls-15" d="M79.53,49.13c-.97.14-1.78-.16-1.93-.91-.15-.79.29-1.49,1.18-1.75.8-.23,1.79.02,2,.81s-.27,1.71-1.26,1.85Z"/>
      <path class="cls-8" d="M229.18,53.11c-.19-1.69-1.52-2.69-3.16-2.84-1.71-.15-3.13.24-4.4,1.42.02-.45-.02-1.12-.26-1.15-.83-.1-1.52-.05-2.18.04l-1.73,12.17,2.75-.09.64-4.08c1.92,1.25,4.23.96,6-.26,1.6-1.1,2.59-3.06,2.35-5.21ZM223.91,57.76c-.87.22-1.72.11-2.17-.28-.62-.52-.59-1.34-.52-2.18.15-1.74,1.01-3.24,2.82-3.47.71-.09,1.38.2,1.76.58,1.18,1.2.4,4.77-1.88,5.34Z"/>
      <path class="cls-2" d="M136.19,50.5c-2.16-.5-4.44-.16-6.58.47-.2.59-.24,1.17-.05,1.64,2.17-.84,4.88-1.27,5.75-.05.21.3.22,1.13-.12,1.17-2.97.37-6.91.48-7.42,2.83-.17.78-.02,1.88.93,2.33,2.07.98,4.48.54,6.11-.86l.19,1.16h2.34s.79-5.63.79-5.63c.2-1.46-.43-2.71-1.94-3.06ZM132.05,57.95c-.74,0-1.43-.22-1.57-.83-.12-.5.17-1.35.8-1.47l3.86-.76c.11,2-1.26,3.08-3.09,3.06Z"/>
      <path class="cls-8" d="M53.61,52.68c0-.75-.36-1.66-1.25-1.99-2.38-.88-5.24-.46-7.18,1.26-1.25,1.11-1.7,2.84-1.48,4.44.47,3.45,5.43,3.56,8.87,2.24.32-.34.41-1.08.34-1.62-1.54.71-3.25,1.07-5.09.62-1.12-.27-1.74-1.42-1.48-2.21,3.14.17,7.24-.36,7.27-2.74ZM50.12,51.72c.56.09,1.2.67,1.03,1.24-.17.57-.86,1.04-1.49,1.1l-3.25.32c.41-1.86,1.92-2.95,3.71-2.66Z"/>
      <path class="cls-1" d="M113.85,9.92c-.91-1.82-2.28-3.22-4.03-4.23-1.93-.8-3.91-1.34-6.06-1.35l-15.47-.07-4.51,24.02-1.79,8.97h8.43s2.03-10.73,2.03-10.73l4.66.02,5.52,10.72h9.63s-6.71-12.6-6.71-12.6c6.93-2.28,10.01-7.81,8.27-14.74ZM100.98,19.88l-7.18.13,1.75-9.5,5.97.06c1.29.01,2.84.43,3.67,1.62,1.09,1.55.79,3.49-.09,5.13-.7,1.31-2.31,2.53-4.13,2.56Z"/>
      <path class="cls-3" d="M35.48,25.76l-4.09-21.48h-8S7.15,27.59,7.15,27.59L.25,37.22l7.66.09,4.83-7.36h14.86s1.12,7.34,1.12,7.34l8.99-.03-2.23-11.5ZM18.03,23.19l6.75-11.03,1.84,11.01h-8.58Z"/>
      <path class="cls-13" d="M174.57,57.71c-1.11-.2-1.79-1.15-1.71-2.29,3.13.15,7.24-.28,7.29-2.75.02-.86-.56-1.71-1.52-2.05-2.11-.74-4.59-.46-6.42.92-1.15.87-1.84,2.33-1.98,3.72-.2,2.08,1.01,3.72,3.02,4.01,2.05.29,4.08.08,6.01-.64.18-.61.34-1.09.32-1.71-1.72.88-3.32,1.1-5.02.79ZM176.56,51.68c.56.08.98.38,1.08.82.34,1.42-2.28,1.92-4.67,1.86.43-1.77,1.91-2.91,3.59-2.68Z"/>
      <path class="cls-8" d="M17.79,50.46c-2.82.57-4.71,3.12-4.26,6,.52,3.3,5.4,3.58,8.44,2.16.47-.22.56-1.12.39-1.6-1.44.61-2.88,1.05-4.51.69-1.18-.26-1.89-1.34-1.7-2.3,3.1.1,7-.38,7.13-2.75.1-1.91-2.54-2.79-5.5-2.19ZM16.2,54.34c.44-1.66,1.73-2.78,3.4-2.71.56.02,1.09.46,1.19.88.32,1.47-2.22,1.89-4.59,1.83Z"/>
      <path class="cls-5" d="M104.25,50.58c-.22.05-.3.66-.3,1.03-2.22-2.33-6.92-1.59-8.42,1.13-.83,1.5-1.19,3.69.02,5.09,1.86,2.16,5.35,1.69,7.17-.27-.07,1.19-.43,2.71-1.54,3.36-2,1.19-4.59.72-6.55-.3-.21.57-.33,1.16-.24,1.85,4.24,1.43,9.9.98,10.67-3.43l1.48-8.49c-.8-.07-1.46-.14-2.27.03ZM102.53,56.1c-.68,1.01-2.07,1.66-3.42,1.41-1.12-.21-1.57-1.15-1.53-2.2.05-1.26.47-2.41,1.42-2.98,1.01-.61,2.57-.96,3.58.11.89.94.6,2.69-.05,3.66Z"/>
      <path class="cls-5" d="M127.52,49.23c-.59-1.21-1.82-2.02-3.19-2.03l-7.46-.08-1.82,12.06h3.04s.66-4.33.66-4.33c2.01.15,3.91.21,5.86-.49,2.25-.82,3.51-2.9,2.91-5.13ZM123.54,52.77c-1.46.9-3.05.87-4.63.59l.67-4.67c1.45-.07,3.01-.29,4.3.49,1.27.76.93,2.81-.34,3.59Z"/>
    </g>
  </g>
</svg>